<?xml version="1.0" encoding="utf-8"?>
<!-- Generator: Adobe Illustrator 24.0.0, SVG Export Plug-In . SVG Version: 6.00 Build 0)  -->
<svg version="1.1" id="edfeb08d-cf64-4dc3-bad9-eda805eddb33"
	 xmlns="http://www.w3.org/2000/svg" xmlns:xlink="http://www.w3.org/1999/xlink" x="0px" y="0px" viewBox="0 0 941 780"
	 style="enable-background:new 0 0 941 780;" xml:space="preserve">
<style type="text/css">
	.st0{fill:#F2F2F2;}
	.st1{fill:#3F3D56;}
	.st2{opacity:0.1;enable-background:new    ;}
	.st3{fill:#F6B93B;}
	.st4{fill:#A8A8A8;}
	.st5{opacity:0.2;enable-background:new    ;}
	.st6{fill:#FFB9B9;}
	.st7{fill:#575A89;}
	.st8{fill:#2F2E41;}
	.st9{opacity:0.3;fill:#F9A826;enable-background:new    ;}
</style>
<title>personal text</title>
<circle class="st0" cx="568" cy="373" r="373"/>
<path class="st1" d="M912,732c0,15.5-204.2,48-456,48S0,747.5,0,732s204.2-8,456-8S912,716.5,912,732z"/>
<path class="st2" d="M912,732c0,15.5-204.2,48-456,48S0,747.5,0,732s204.2-8,456-8S912,716.5,912,732z"/>
<ellipse class="st1" cx="456" cy="732" rx="456" ry="28"/>
<path class="st1" d="M722.2,599.4c0,63.2,39.7,114.3,88.7,114.3"/>
<path class="st3" d="M810.8,713.8c0-63.9,44.2-115.6,98.9-115.6"/>
<path class="st3" d="M754.3,605.1c0,60,25.3,108.6,56.5,108.6"/>
<path class="st1" d="M810.8,713.8c0-81.7,51.1-147.8,114.3-147.8"/>
<path class="st4" d="M792.2,714.6c0,0,12.6-0.4,16.4-3.1s19.3-5.9,20.3-1.6s18.9,21.5,4.7,21.6s-33-2.2-36.8-4.5
	S792.2,714.6,792.2,714.6z"/>
<path class="st5" d="M833.8,730c-14.2,0.1-33-2.2-36.8-4.5c-2.9-1.8-4-8-4.4-11c-0.3,0-0.4,0-0.4,0s0.8,10.1,4.6,12.4
	s22.6,4.6,36.8,4.5c4.1,0,5.5-1.5,5.4-3.6C838.4,729.2,836.8,730,833.8,730z"/>
<path class="st6" d="M572.6,235.3c0,0,12.8,26.9,7.7,39.7s19.2,26.9,19.2,26.9l32-17.9v-23l-5.1-10.2c0,0-20.5-11.5-17.9-29.4
	S572.6,235.3,572.6,235.3z"/>
<path class="st2" d="M572.6,235.3c0,0,12.8,26.9,7.7,39.7s19.2,26.9,19.2,26.9l32-17.9v-23l-5.1-10.2c0,0-20.5-11.5-17.9-29.4
	S572.6,235.3,572.6,235.3z"/>
<path class="st6" d="M548.3,347.9c0,0-2.6,28.1-2.6,32s-3.8,16.6-3.8,16.6s-14.1,65.2-23,71.6s-14.1,46.1,0,43.5
	s17.9-37.1,17.9-37.1l29.1-55l4.1-66.5L548.3,347.9z"/>
<path class="st7" d="M558.6,291.6h-10.2c0,0-10.2,61.4,0,64s29.4,2.6,29.4,2.6L558.6,291.6z"/>
<polygon class="st6" points="616.1,686.9 621.2,711.2 631.5,703.5 626.4,681.8 616.1,685.6 "/>
<path class="st8" d="M570.1,427.2l-7.7,5.1c0,0-3.8,44.8,5.1,79.3s15.4,75.5,15.4,75.5s15.4,102.3,19.2,104.9s28.1,3.8,29.4-1.3
	s-9-101.1-9-101.1s-7.7-80.6-1.3-90.8c0,0,20.5,88.3,26.9,97.2c0,0,9,97.2,14.1,99.8s29.4,3.8,30.7-1.3s-7.7-115.1-11.5-124.1
	s-5.1-142-14.1-140.7S570.1,427.2,570.1,427.2z"/>
<circle class="st6" cx="585.4" cy="217.4" r="29.4"/>
<path class="st7" d="M596.9,282.6l-6.4-11.5c0,0-7.7-10.2-11.5-7.7s-3.8,11.5-3.8,11.5s-29.4,10.2-26.9,24.3s19.2,38.4,19.2,38.4
	s2.6,20.5,0,25.6s-7.7,9-3.8,14.1s5.1,6.4,3.8,12.8s-3.8,9-1.3,11.5s-1.3,29.4-3.8,30.7s81.9,14.1,88.3,10.2s24.3-3.8,23-7.7
	s-6.4-26.9-6.4-30.7s0-20.5-1.3-21.7s1.3-20.5,1.3-20.5l-6.4-53.7l20.5-32c0,0-5.1-17.9-29.4-20.5c-24.3-2.6-31-9-31-9
	s-2.2,11.5-7.3,14.1S596.9,282.6,596.9,282.6z"/>
<path class="st6" d="M690.3,317.2l7.7,57.6l-16.6,83.2c0,0-6.4,47.3-19.2,46.1s0-51.2,0-51.2l10.2-78c0,0-16.6-39.7-12.8-44.8
	S690.3,317.2,690.3,317.2z"/>
<path class="st8" d="M627.6,699.7c0,0-16.6-9-20.5-7.7s-7.7,19.2-7.7,19.2s-29.4,21.7-10.2,26.9s26.9-6.4,26.9-6.4
	s19.2-10.2,19.2-12.8s-2.6-19.2-2.6-19.2L627.6,699.7z"/>
<path class="st8" d="M666,693.3c0,0-7.7,42.2-2.6,44.8s26.9,6.4,29.4,0s2.6-21.7,1.3-26.9s-5.1-17.9-5.1-17.9H666z"/>
<path class="st8" d="M580.3,170.9c-1.1-0.3-2.4-0.4-3.5-0.1c-1.5,0.5-2.4,1.8-3.6,2.9c-2.9,2.8-7.1,3.7-10.9,5s-7.8,3.7-8.8,7.6
	c-0.2,1.6-0.4,3.2-0.4,4.8c-0.6,4.6-4.1,8.8-3.5,13.4c0.4,3,2.6,5.6,3,8.6c0.5,3.4-1.2,6.9-0.3,10.1c0.9,3.2,4.1,5.2,7,6.8
	c1.2-7.9,2.7-15.7,4.5-23.5c0.2-1.4,0.7-2.7,1.6-3.9c2.6-2.9,7.6-1.3,11-3.2c1.3-0.8,2.2-2,3.5-2.6c3.9-1.8,8,2.2,12.3,2.3
	c1.9,0,4-0.7,5.5,0.3c0.7,0.5,1.3,1.2,1.6,2c1.5,2.9,2.4,6.1,4.1,8.8s5,4.9,8.1,4.2c-0.5-2.4,1.4-4.6,2.2-7
	c1.3-4.1-0.8-8.5-0.3-12.7c0.5-4,3.1-8.7,0.2-11.5c-1-0.8-2.1-1.4-3.4-1.7C600.2,178,590.9,172.6,580.3,170.9z"/>
<path class="st7" d="M668.6,271.1l12.8,5.1c0,0,16.6,53.7,12.8,53.7s-38.4,9-38.4,5.1S658.3,271.1,668.6,271.1z"/>
<polygon class="st1" points="466,162 70,162 70,292 85,292 85,326 119,292 466,292 "/>
<polygon class="st1" points="466,512 70,512 70,642 85,642 85,676 119,642 466,642 "/>
<polygon class="st1" points="140,338 536,338 536,468 521,468 521,502 487,468 140,468 "/>
<rect x="116" y="183.5" class="st9" width="304" height="12"/>
<rect x="116" y="206.5" class="st9" width="152" height="12"/>
<circle class="st9" cx="133" cy="253.5" r="17"/>
<rect x="176" y="357.5" class="st3" width="304" height="12"/>
<rect x="176" y="380.5" class="st3" width="152" height="12"/>
<circle class="st3" cx="193" cy="427.5" r="17"/>
<rect x="116" y="533.5" class="st9" width="304" height="12"/>
<rect x="116" y="556.5" class="st9" width="152" height="12"/>
<circle class="st9" cx="133" cy="603.5" r="17"/>
</svg>
